<svg width="262" height="55" viewBox="0 0 262 55" fill="none" xmlns="http://www.w3.org/2000/svg">
<circle cx="129.5" cy="27.5" r="27.5" fill="#2F80ED"/>
<path d="M130.745 18.0175L131 18C131.453 18 131.891 18.1641 132.232 18.4619C132.574 18.7597 132.796 19.1711 132.858 19.62L132.875 19.875V26.1225L139.125 26.125C139.578 26.125 140.016 26.2891 140.357 26.5869C140.699 26.8847 140.921 27.2961 140.983 27.745L141 28C141 28.4531 140.836 28.8909 140.538 29.2323C140.24 29.5738 139.829 29.7959 139.38 29.8575L139.125 29.875L132.875 29.8725V36.125C132.875 36.5781 132.711 37.0159 132.413 37.3573C132.115 37.6988 131.704 37.9209 131.255 37.9825L131 38C130.547 38 130.109 37.8359 129.768 37.5381C129.426 37.2403 129.204 36.8289 129.142 36.38L129.125 36.125V29.8725L122.875 29.875C122.422 29.875 121.984 29.7109 121.643 29.4131C121.301 29.1153 121.079 28.7039 121.017 28.255L121 28C121 27.5469 121.164 27.1091 121.462 26.7677C121.76 26.4262 122.171 26.2041 122.62 26.1425L122.875 26.125L129.125 26.1225V19.875C129.125 19.4219 129.289 18.9841 129.587 18.6427C129.885 18.3012 130.296 18.0791 130.745 18.0175L131 18L130.745 18.0175Z" fill="white"/>
<path fill-rule="evenodd" clip-rule="evenodd" d="M247.907 28.5068C250.591 27.9961 252.62 25.6373 252.62 22.8046C252.62 19.5988 250.021 17 246.815 17C243.61 17 241.011 19.5988 241.011 22.8046C241.011 25.6373 243.04 27.9961 245.724 28.5068C243.431 28.7545 241.279 29.7773 239.633 31.4232C238.443 32.6133 237.578 34.0682 237.097 35.6494C236.615 37.2345 238.001 38.6061 239.657 38.6061L246.815 38.6061H253.974C255.63 38.6061 257.016 37.2345 256.534 35.6494C256.053 34.0682 255.188 32.6133 253.998 31.4232C252.352 29.7773 250.2 28.7545 247.907 28.5068Z" fill="#42424D"/>
<path d="M24.3952 21.5085C24.0073 20.6262 23.448 19.8267 22.7486 19.1547C22.0486 18.4808 21.2234 17.9452 20.3177 17.5771C19.3786 17.1939 18.3713 16.9977 17.3544 17C15.9278 17 14.5358 17.3838 13.3262 18.1087C13.0368 18.2821 12.7619 18.4725 12.5014 18.68C12.241 18.4725 11.9661 18.2821 11.6767 18.1087C10.4671 17.3838 9.07511 17 7.64845 17C6.62113 17 5.62564 17.1933 4.68514 17.5771C3.77647 17.9466 2.95751 18.4782 2.25431 19.1547C1.55399 19.826 0.994552 20.6256 0.607709 21.5085C0.205463 22.4266 0 23.4017 0 24.4051C0 25.3517 0.196782 26.3381 0.587452 27.3416C0.914457 28.1802 1.38326 29.05 1.98229 29.9284C2.93147 31.3184 4.2366 32.7682 5.85715 34.2379C8.54265 36.674 11.2021 38.3569 11.315 38.4251L12.0008 38.8572C12.3047 39.0476 12.6953 39.0476 12.9992 38.8572L13.685 38.4251C13.7979 38.354 16.4544 36.674 19.1428 34.2379C20.7634 32.7682 22.0685 31.3184 23.0177 29.9284C23.6167 29.05 24.0884 28.1802 24.4125 27.3416C24.8032 26.3381 25 25.3517 25 24.4051C25.0029 23.4017 24.7974 22.4266 24.3952 21.5085Z" fill="#42424D"/>
</svg>
