<svg width="136" height="136" viewBox="0 0 136 136" fill="none" xmlns="http://www.w3.org/2000/svg">
<path d="M135.459 67.7703C135.459 105.049 105.239 135.27 67.9595 135.27C30.6803 135.27 0.459473 105.049 0.459473 67.7703C0.459473 30.4911 30.6803 0.270271 67.9595 0.270271C105.239 0.270271 135.459 30.4911 135.459 67.7703ZM9.95841 67.7703C9.95841 99.8034 35.9264 125.771 67.9595 125.771C99.9926 125.771 125.961 99.8034 125.961 67.7703C125.961 35.7372 99.9926 9.76921 67.9595 9.76921C35.9264 9.76921 9.95841 35.7372 9.95841 67.7703Z" fill="#0B0B12"/>
<path d="M67.9595 130.478C67.9595 133.125 65.8113 135.288 63.1714 135.1C53.287 134.397 43.6576 131.525 34.9775 126.664C24.9009 121.021 16.4407 112.886 10.4062 103.039C4.37179 93.1916 0.964923 81.9606 0.511511 70.4203C0.0580984 58.8799 2.57331 47.4163 7.81656 37.1259C13.0598 26.8354 20.8557 18.0624 30.4585 11.646C40.0614 5.22963 51.1499 1.38447 62.6636 0.478344C74.1772 -0.427782 85.7308 1.63544 96.2191 6.47065C105.254 10.6357 113.238 16.7376 119.616 24.3212C121.32 26.3465 120.833 29.3559 118.691 30.9115C116.55 32.467 113.568 31.9773 111.841 29.9721C106.443 23.7052 99.7519 18.6525 92.2067 15.1741C83.2076 11.0254 73.2944 9.25513 63.4155 10.0326C53.5366 10.8101 44.0224 14.1093 35.783 19.6147C27.5436 25.1201 20.8546 32.6474 16.3558 41.4768C11.857 50.3062 9.69888 60.1422 10.0879 70.044C10.477 79.9458 13.4001 89.5822 18.5778 98.0314C23.7554 106.481 31.0144 113.46 39.6604 118.302C46.9093 122.362 54.93 124.805 63.1729 125.488C65.8104 125.707 67.9595 127.832 67.9595 130.478Z" fill="#2F80ED"/>
</svg>
