<svg width="17" height="21" viewBox="0 0 17 21" fill="none" xmlns="http://www.w3.org/2000/svg">
<path d="M9.23056 1.0759C8.85056 0.7459 8.28056 0.7459 7.90056 1.0759C3.02056 5.3759 0.570557 9.1159 0.570557 12.2959C0.570557 17.2759 4.37056 20.4959 8.57056 20.4959C12.7706 20.4959 16.5706 17.2759 16.5706 12.2959C16.5706 9.1159 14.1206 5.3759 9.23056 1.0759ZM4.40056 12.4959C4.77056 12.4959 5.07056 12.7559 5.14056 13.1159C5.55056 15.3359 7.42056 16.0959 8.78056 15.9859C9.21056 15.9659 9.57056 16.3059 9.57056 16.7359C9.57056 17.1359 9.25056 17.4659 8.85056 17.4859C6.72056 17.6159 4.23056 16.3959 3.66056 13.3659C3.64318 13.2587 3.64929 13.149 3.67848 13.0444C3.70767 12.9397 3.75923 12.8427 3.8296 12.76C3.89997 12.6772 3.98747 12.6108 4.08605 12.5652C4.18464 12.5196 4.29194 12.4959 4.40056 12.4959Z" fill="#42424D"/>
</svg>
