<svg width="23" height="21" viewBox="0 0 23 21" fill="none" xmlns="http://www.w3.org/2000/svg">
<path d="M21.7691 4.88796C21.4285 4.1032 20.9374 3.39206 20.3233 2.79434C19.7087 2.19484 18.9841 1.71843 18.1888 1.39101C17.3642 1.05015 16.4798 0.875673 15.5868 0.877719C14.3341 0.877719 13.1119 1.21907 12.0498 1.86384C11.7957 2.01808 11.5543 2.1875 11.3256 2.37208C11.0969 2.1875 10.8555 2.01808 10.6014 1.86384C9.53923 1.21907 8.31701 0.877719 7.06429 0.877719C6.16223 0.877719 5.28812 1.04966 4.46229 1.39101C3.66441 1.71972 2.9453 2.19255 2.32784 2.79434C1.7129 3.39138 1.22168 4.10269 0.882002 4.88796C0.528801 5.70468 0.348389 6.57196 0.348389 7.46453C0.348389 8.30653 0.521178 9.18393 0.864214 10.0765C1.15135 10.8224 1.56299 11.5961 2.08898 12.3775C2.92244 13.6139 4.06843 14.9035 5.4914 16.2107C7.84946 18.3777 10.1847 19.8745 10.2838 19.9352L10.886 20.3196C11.1528 20.489 11.4958 20.489 11.7626 20.3196L12.3648 19.9352C12.4639 19.872 14.7966 18.3777 17.1572 16.2107C18.5802 14.9035 19.7262 13.6139 20.5596 12.3775C21.0856 11.5961 21.4998 10.8224 21.7844 10.0765C22.1274 9.18393 22.3002 8.30653 22.3002 7.46453C22.3027 6.57196 22.1223 5.70468 21.7691 4.88796Z" fill="#42424D"/>
</svg>
