<svg width="16" height="25" viewBox="0 0 16 25" fill="none" xmlns="http://www.w3.org/2000/svg">
<path d="M10.2067 4.99934C11.4486 4.99934 12.4563 3.99168 12.4563 2.74967C12.4563 1.50766 11.4486 0.5 10.2067 0.5C8.96468 0.5 7.95703 1.50766 7.95703 2.74967C7.95703 3.99168 8.96468 4.99934 10.2067 4.99934ZM14.6356 11.9874L13.5436 11.4343L13.089 10.0564C12.4 7.96609 10.4785 6.50381 8.29916 6.49912C6.61195 6.49443 5.67929 6.97249 3.92647 7.6802C2.91414 8.08795 2.08459 8.86127 1.59717 9.8455L1.28316 10.4829C0.917598 11.2234 1.21286 12.1233 1.94867 12.4936C2.6798 12.8638 3.57028 12.5639 3.94053 11.8233L4.25453 11.1859C4.41857 10.8579 4.6904 10.6001 5.02784 10.4642L6.28388 9.95799L5.5715 12.8029C5.32779 13.7777 5.59025 14.8135 6.26982 15.5587L9.07716 18.6239C9.4146 18.9942 9.65362 19.4394 9.77548 19.9222L10.6331 23.3576C10.8347 24.159 11.6502 24.6511 12.4516 24.4496C13.253 24.2481 13.7451 23.4326 13.5436 22.6311L12.5031 18.4599C12.3813 17.9771 12.1423 17.5272 11.8048 17.1616L9.67237 14.8323L10.4785 11.6124L10.7363 12.3858C10.9846 13.1403 11.5189 13.7637 12.2219 14.1199L13.3139 14.6729C14.0451 15.0432 14.9355 14.7432 15.3058 14.0027C15.6667 13.2669 15.3714 12.3576 14.6356 11.9874ZM3.90772 18.5817C3.75774 18.9614 3.53278 19.3035 3.24221 19.5894L0.898852 21.9375C0.313013 22.5233 0.313013 23.4748 0.898852 24.0606C1.48469 24.6465 2.4314 24.6465 3.01724 24.0606L5.80115 21.2766C6.08704 20.9907 6.312 20.6486 6.46666 20.269L7.09937 18.6848C4.50762 15.8587 5.28561 16.7257 4.87787 16.168L3.90772 18.5817Z" fill="#79797F" fill-opacity="0.44"/>
</svg>
